# xmcd
#
# Track frame offsets:
#	150
#	14786
#	30037
#	43693
#	58682
#	73393
#	88478
#	98933
#	114011
#	130069
#	143454
#	157469
#	172037
#
# Disc length: 2497 seconds
#
# Revision: 0
# Processed by: cddbd v1.5.2PL0 Copyright (c) Steve Scherf et al.
# Submitted via: EasyCDDAExtractor 16.0.6.1
#
DISCID=b709bf0d
DTITLE=Τσιτσάνης Βασίλης - Ο Βασίλης Τσιτσάνης τραγουδά μεγ. επιτυχίες του
DYEAR=1900
DGENRE=Ποικίλη
TTITLE0=Τσιτσάνης Βασίλης-Λαμπράκη Χαρούλα - Με παρέσυρε το ρέμα
TTITLE1=Τσιτσάνης Βασίλης-Λαμπράκη Χαρούλα-χορωδία - Δε ρωτώ ποια είσαι
TTITLE2=Τσιτσάνης Βασίλης-Νικολάου Λιζέτα - Το βαπόρι απ' την Περσία
TTITLE3=Τσιτσάνης Βασίλης-Λαμπράκη Χαρούλα - Κορίτσι μου όλα για σένα
TTITLE4=Τσιτσάνης Βασίλης-Λαμπράκη Χαρούλα - Ο μάγκας κάνει δυό δουλειές
TTITLE5=Τσιτσάνης Βασίλης-Λαμπράκη Χαρούλα - Παρηγόρα με μπουζούκι μου
TTITLE6=Τσιτσάνης Βασίλης-Αλεξάνδρα - Τα μούρα
TTITLE7=Τσιτσάνης Βασίλης-Γκρέϋ Καίτη - Απόψε στις ακρογιαλιές
TTITLE8=Τσιτσάνης Βασίλης-Γκρέϋ Καίτη - Για να σε κάνω άνθρωπο
TTITLE9=Τσιτσάνης Βασίλης-Λαμπράκη Χαρούλα - Όταν θα σμίξεις
TTITLE10=Τσιτσάνης Βασίλης-Λαμπράκη Χαρούλα - Καλύτερα σ' ένα κελί
TTITLE11=Τσιτσάνης Βασίλης-Λαμπράκη Χαρούλα - Στην απάνω σκάλα
TTITLE12=Τσιτσάνης Βασίλης-Λαμπράκη Χαρούλα - Δείρε με και μάλωσέ με
EXTD=
EXTT0=
EXTT1=
EXTT2=
EXTT3=
EXTT4=
EXTT5=
EXTT6=
EXTT7=
EXTT8=
EXTT9=
EXTT10=
EXTT11=
EXTT12=
PLAYORDER=
